<?xml version="1.0" encoding="utf-8"?>
<!-- Generator: Adobe Illustrator 18.1.1, SVG Export Plug-In . SVG Version: 6.00 Build 0)  -->
<svg version="1.1" id="Layer_1" xmlns="http://www.w3.org/2000/svg" xmlns:xlink="http://www.w3.org/1999/xlink" x="0px" y="0px"
	 viewBox="0 0 888.1 885.1" enable-background="new 0 0 888.1 885.1" xml:space="preserve">
<g>
	<path fill="#FDFDFE" stroke="#FDFDFE" stroke-width="2" stroke-miterlimit="10" d="M76.2,508.1c-0.2,0-0.4-0.1-0.6-0.4
		c-0.2-0.3-0.2-0.6,0-0.9l-0.1-0.7c-1.9,0.6-3.9,1.1-6.2,1.7c-2.3,0.6-4.3,0.9-6.2,1.1c-1.9,0.1-3.4,0-4.6-0.3
		c-1.2-0.4-1.5-1.3-1.1-2.8c0.3-1.1,1.4-2.2,3.3-3.5c1.9-1.2,4.1-2.4,6.6-3.5c2.5-1.1,4.9-2.1,7.3-3.1c2.4-0.9,4.3-1.6,5.6-2.1
		c2.9-6.8,5.9-13.4,9.2-19.6c3.3-6.3,6.6-12.1,9.9-17.6c3.3-5.5,6.4-10.5,9.5-15c3.1-4.6,5.9-8.6,8.4-12.1l0.2-0.7l-2.2,1.4
		c-6,4.2-11.3,7.1-16.1,8.5c-4.8,1.4-8.7,1.7-11.7,1.1s-5.2-2.3-6.4-4.8c-1.2-2.5-1.3-5.6-0.1-9.3c1.1-3.7,3.5-7.9,7.2-12.5
		c3.6-4.6,8.9-9.3,15.6-14.2c4.8-3.5,10.3-6.5,16.3-9c6.1-2.5,12.2-4.5,18.4-5.9c6.2-1.4,12.2-2.2,18.1-2.3c5.9-0.1,11,0.5,15.4,1.8
		c4.4,1.4,7.9,3.6,10.3,6.6c2.4,3,3.4,7,2.8,11.8c-0.4,3.3-1.8,7.2-4.3,11.8s-6.2,9.4-11,14.4c-4.8,5-10.8,10.1-18,15.1
		c-7.1,5-15.6,9.6-25.4,13.7c1.9,0.6,3.3,1.6,4.1,2.9c0.8,1.4,1.2,3,1.2,4.8c0,1.8-0.5,3.8-1.3,5.8c-0.9,2-2,3.9-3.4,5.7
		c4.8-2.1,9.7-4.3,14.8-6.6c5-2.3,9.9-4.6,14.7-7c4.8-2.4,9.3-4.8,13.5-7.4c4.2-2.6,7.9-5.2,11.2-8c0.5-0.7,0.9-0.6,1.4,0.1
		c0.3,0.2,0.4,0.5,0.4,0.8c0,0.3-0.2,0.5-0.5,0.6c-6.5,5.6-14.7,10.8-24.6,15.5c-9.8,4.7-20.6,9.8-32.4,15.3l-0.7,0.1
		c-3.3,3.1-6.8,5.9-10.6,8.4c-3.8,2.5-7.7,4.8-11.6,6.8c-4,2.1-8,3.9-12.1,5.6c-4.1,1.7-8.1,3.3-12.1,4.8l-0.6,2.5
		c-0.2,0.3-0.4,0.5-0.7,0.6C76.8,508.2,76.5,508.2,76.2,508.1z M76.4,503.5l2.6-7c-1.4,0.5-3.2,1.1-5.4,1.9
		c-2.2,0.8-4.3,1.7-6.3,2.6c-2,1-3.8,1.9-5.2,2.9c-1.5,0.9-2.2,1.8-2.2,2.4c-0.1,0.7,1.4,0.9,4.4,0.5c3-0.4,6.9-1.5,11.7-3.2
		L76.4,503.5z M119.3,481.3c-7.2,2.6-14,5.2-20.6,7.7c-6.6,2.5-12.2,4.6-16.7,6.3l-0.7,1.9l-1.9,5.2c7.1-2.8,14.1-5.9,21-9.3
		C107.3,489.7,113.6,485.8,119.3,481.3z M123.1,477.6c2-2.2,3.6-4.6,4.7-7.2c1.1-2.6,1.6-4.9,1.5-6.9c-0.1-2-0.9-3.5-2.4-4.4
		c-1.5-1-3.8-0.9-7,0.1l-0.7,0.1c-0.7,0.1-1.1-0.2-1.2-0.8c-0.3-0.2-0.3-0.5-0.1-0.9c0.2-0.4,0.5-0.6,0.8-0.7
		c3.4-0.9,7.3-2.4,11.6-4.3c4.3-2,8.7-4.3,13.2-7c4.5-2.7,8.9-5.8,13.2-9.1c4.3-3.3,8.3-6.9,11.8-10.7c3.6-3.8,6.6-7.7,9-11.8
		c2.5-4.1,4.1-8.3,4.8-12.6c0.8-4.3,0.1-7.8-2.1-10.4c-2.2-2.7-5.4-4.6-9.5-5.8c-4.2-1.2-9-1.7-14.6-1.5c-5.6,0.2-11.3,1-17.2,2.3
		c-5.9,1.4-11.8,3.2-17.7,5.6c-5.9,2.4-11.1,5.2-15.8,8.4c-5.9,4.1-10.6,8.2-14.1,12.4c-3.6,4.1-6,7.9-7.4,11.3
		c-1.4,3.4-1.7,6.3-1.1,8.8c0.7,2.5,2.3,4.1,4.9,4.8c2.6,0.7,6.1,0.4,10.6-0.9c4.4-1.3,9.7-4,15.8-8.1c0.9-0.8,1.8-1.5,2.7-2.1
		c0.9-0.6,1.9-1.2,2.8-1.9l1.8-1.4l0.3-0.4c2.4-3.2,4.7-6.1,6.8-8.9c2.1-2.7,4.1-5.1,6-7.2c2.3-2.7,4.4-4.8,6.3-6.4
		c1.9-1.6,3.3-2.5,4.2-2.6c0.4-0.1,0.9,0.1,1.5,0.4c0.2,0,0.4,0.1,0.4,0.3c0,0.2,0,0.5-0.2,0.7c-0.5,2.7-2.7,6.2-6.6,10.4
		c-3.9,4.2-8.6,8.5-14,12.8l-2.8,1.9l-4.5,6.3c-2.4,3.5-5.1,7.5-8.2,12c-3.1,4.5-6.3,9.4-9.5,14.7c-3.2,5.3-6.5,10.9-9.7,17
		c-3.2,6-6.2,12.3-8.9,18.9c7.2-2.6,13.7-5.1,19.6-7.4c5.9-2.3,11.8-4.5,17.7-6.6L123.1,477.6z M136.4,407.9
		c-0.6,0.8-1.2,1.5-1.9,2.2c-0.7,0.7-1.3,1.4-1.9,2.2l-3.7,4.8l1.5-1.3c3-2.8,5.7-5.5,8.1-8c2.4-2.5,4.2-4.8,5.2-6.7
		c-0.9,0.5-2,1.4-3.2,2.5C139.5,404.8,138.1,406.2,136.4,407.9z"/>
	<path fill="#FDFDFE" stroke="#FDFDFE" stroke-width="2" stroke-miterlimit="10" d="M173.9,449.1c0.4-1.8,1.3-3.4,2.6-4.9
		c1.4-1.5,2.8-2.6,4.3-3.2c1.2-0.4,2.4-0.6,3.5-0.5c1.2,0.1,1.9,0.6,2.2,1.6c0.3,1,0,2-0.8,3.2c-0.8,1.1-1.8,2.2-3.1,3.2
		c-1.3,1-2.5,1.9-3.8,2.7c-1.2,0.8-2.1,1.3-2.5,1.5c0.8,1.5,2.2,2.4,4.1,2.9c1.9,0.5,4,0.3,6.3-0.4c4.2-1.3,8.1-3.2,12-5.8
		c3.8-2.6,7.1-5.1,9.8-7.6c0.6-0.7,1.1-0.8,1.7-0.3c0.5,0.5,0.5,1.1,0,1.7c-1.4,1.4-3.1,2.9-5,4.4c-2,1.5-4.1,3-6.3,4.4
		c-2.2,1.4-4.6,2.6-7,3.6c-2.4,1-4.8,1.8-7.1,2.2c-1.6,0.3-3.1,0.3-4.5,0c-1.4-0.3-2.7-0.8-3.8-1.5c-1.1-0.7-1.9-1.7-2.4-2.9
		C173.5,452.3,173.5,450.8,173.9,449.1z M184.2,442.5c-2.1-0.1-3.9,0.8-5.6,2.8c-1.6,2-2.6,3.9-2.8,5.8c0.4-0.3,1.1-0.8,2-1.5
		c0.9-0.7,1.9-1.4,2.9-2.2c1-0.8,1.9-1.6,2.6-2.5C184,444,184.3,443.2,184.2,442.5z"/>
	<path fill="#FDFDFE" stroke="#FDFDFE" stroke-width="2" stroke-miterlimit="10" d="M204.8,454.9c-1.5-0.6-2.2-1.7-2.1-3.3
		c0.1-1.7,0.6-3.4,1.7-5.1c1.1-1.7,2.5-3.4,4.3-4.9c1.8-1.5,3.7-2.5,5.7-2.8c1.3-0.2,2.6-0.2,3.8,0.2c1.2,0.4,2,0.9,2.4,1.5
		c0.3,0.3,0.2,0.6-0.1,1c-0.3,0.3-0.7,0.4-1.1,0.3c-0.6-0.2-1.2-0.5-1.8-0.8c-0.6-0.3-1.5-0.3-2.9-0.1s-2.7,0.9-4.1,2.1
		c-1.4,1.2-2.6,2.4-3.6,3.8c-1,1.4-1.6,2.6-1.9,3.8c-0.3,1.2-0.1,1.9,0.6,2.2c1,0.1,2.3-0.4,3.9-1.4c1.6-1,3.2-2.2,4.8-3.6
		c1.7-1.4,3.3-2.8,4.8-4.4c1.5-1.5,2.8-2.8,3.9-4c1-1.1,1.7-1.3,2.2-0.7c0.5,0.6,0.5,1.2,0,1.7c-1.3,1.3-2,2.7-2.3,4.3
		c-0.2,1.6,0.1,2.5,0.9,2.7c0.8,0.2,2.1-0.2,3.8-1.3c1.7-1,3.4-2.2,5.1-3.6c1.7-1.3,3.3-2.6,4.9-3.9c1.5-1.3,2.5-2.1,2.8-2.6
		c0.6-0.5,1.2-0.4,1.7,0.2c0.5,0.6,0.5,1.1,0,1.6c-0.7,0.6-1.8,1.5-3.3,2.9c-1.5,1.4-3.1,2.7-4.9,4c-1.8,1.3-3.6,2.5-5.4,3.5
		c-1.8,1-3.4,1.4-4.7,1.3c-1.3-0.1-2.2-0.7-2.6-1.8c-0.5-1.1-0.5-2.2-0.1-3.3c-1.1,1.1-2.4,2.3-3.9,3.7c-1.5,1.4-3.1,2.6-4.7,3.7
		c-1.7,1.1-3.2,2-4.6,2.6C206.6,455.1,205.5,455.2,204.8,454.9z"/>
	<path fill="#FDFDFE" stroke="#FDFDFE" stroke-width="2" stroke-miterlimit="10" d="M258.2,444.9c-1.4-0.1-2.5-0.7-3.2-1.7
		c-0.8-1-1-2.2-0.6-3.5c-2.9,2.6-5.3,4.2-7.2,4.9c-1.9,0.7-3.4,0.7-4.4,0c-0.7-0.5-1.2-1.2-1.6-2.1c-0.4-1-0.3-2.4,0.1-4.2l-3.3,3
		c-0.9,0.5-1.6,0.5-2.1,0c-0.3-0.5-0.2-1,0.4-1.5c1.1-0.8,2.3-1.7,3.4-2.7c1.1-1.1,2-2,2.5-2.8l0.3-0.4c0.7-1,1.5-1.4,2.2-1.1
		c0.7,0.3,0.8,1,0,2.1l-0.6,0.8c-1.4,3.5-1.4,5.8-0.2,6.9c1,0.5,2.6,0,4.8-1.4c2.2-1.5,4.2-3.2,6.2-5.3c0.8-1.2,1.4-1.8,1.8-1.9
		c0.4-0.1,0.7,0,1,0.3c0.4,0.5,0.5,0.9,0.4,1.1c-0.2,0.2-0.4,0.7-0.6,1.4c-1,2.2-1.3,3.8-0.9,4.6c0.4,0.8,1.1,1.2,2.3,1.2
		c1.1,0,2.4-0.3,3.7-0.9c1.3-0.6,2.5-1.1,3.4-1.6c1.2-0.7,2.2-1.3,3.1-2c0.9-0.7,1.9-1.4,2.8-2.1c1-0.7,2-1.6,3.1-2.5
		c1.1-0.9,2.4-2,3.8-3.3c0.8-0.7,1.3-0.8,1.5-0.2c0.2,0.6,0.2,1,0,1.3c-1.7,1.8-3.5,3.5-5.5,5.2c-2,1.7-4,3.2-6.1,4.5
		c-2,1.3-4,2.4-5.9,3.1C261.2,444.7,259.6,445,258.2,444.9z"/>
	<path fill="#FDFDFE" stroke="#FDFDFE" stroke-width="2" stroke-miterlimit="10" d="M273.5,414.1c-0.2,0-0.7,0.2-1.5,0.4
		c-0.8,0.2-1.2,0-1.3-0.6c-0.1-0.6,0.1-1,0.6-1.3c0.2-0.1,0.5-0.3,0.8-0.3c2.9-0.8,6.3-1.7,10.2-2.5c3.9-0.9,8.1-1.6,12.5-2.4
		c0.9-1.1,2.1-2.5,3.7-4.2c1.6-1.7,3.3-3.4,5-5.1c1.7-1.7,3.4-3.1,5-4.4c1.6-1.3,2.9-2,4-2.1c0.6-0.1,1,0,1.4,0.4
		c0.3,0.3,0.5,0.7,0.6,1c0,1.3-0.7,2.9-2.1,5c-1.4,2.1-3.2,4.5-5.5,7.3l13.6-1.3l1.1,0.2c0.6,0.2,0.9,0.7,0.9,1.2
		c-0.1,0.4-0.5,0.6-1.4,0.8c-0.5,0.1-0.8,0.1-1.2,0c-2.6,0.2-5.2,0.5-7.6,0.8c-2.5,0.3-5,0.7-7.6,1.1c-3.3,3.8-6.6,7.4-10,11
		c-3.4,3.5-7.1,6.7-11,9.6c-0.6,1-1.2,2.4-1.6,4c-0.4,1.6-0.5,2.9-0.4,3.8c0.3,1.3,1.4,2,3.2,2c1.8,0,4-0.4,6.5-1.2
		c2.6-0.8,5.3-1.9,8.3-3.4c3-1.5,5.8-3,8.6-4.5c2.7-1.5,5.1-3,7.2-4.4c2.1-1.4,3.5-2.6,4.3-3.4c0.8-0.7,1.5-0.8,2-0.3
		c0.5,0.5,0.4,1.1-0.4,1.8c-1.2,1.4-3.3,3.1-6.5,5.2c-3.2,2.1-6.7,4.1-10.5,6.1c-3.8,2-7.6,3.6-11.3,5c-3.7,1.3-6.7,1.8-9,1.5
		c-1.3,0-2.3-0.3-3.2-0.9c-0.9-0.6-1.4-1.5-1.6-2.8c-0.1-0.7-0.2-1.4-0.1-2.2c0-0.8,0.3-1.7,0.7-2.7l0.3-0.4l-2.8,1.9
		c-0.2,0.3-0.5,0.4-0.8,0.3c-0.4-0.1-0.6-0.2-0.6-0.4c-0.3-0.4-0.3-0.9,0.1-1.4l5.7-4.8c1-2.1,2.4-4.6,4.2-7.4c1.8-2.8,4-6,6.7-9.7
		c-3.6,0.6-7,1.2-10.2,1.8C279,412.6,276.1,413.3,273.5,414.1z M285.5,424.5c3.5-3.4,6.5-6.3,9.2-8.9c2.7-2.6,5-4.9,6.9-7l-5.7,1
		c-0.9,1.1-2.1,2.7-3.7,4.8C290.6,416.5,288.3,419.9,285.5,424.5z M311,394.9c-1.5,0.9-3.3,2.4-5.6,4.3c-2.3,1.9-4.8,4.5-7.6,7.6
		l6-1c1.6-2,3.2-4.1,4.7-6.2c1.5-2.1,2.7-3.9,3.3-5.2L311,394.9z"/>
	<path fill="#FDFDFE" stroke="#FDFDFE" stroke-width="2" stroke-miterlimit="10" d="M316.5,433.3c-0.8-0.8-1.1-1.8-0.9-3.1
		c0.2-1.3,0.6-2.5,1.1-3.5c-0.9,0.8-1.6,1.4-2.1,1.7c-0.5,0.3-1.1,0.6-1.5,1c-0.5,0.4-1,0.4-1.4-0.1c-0.4-0.5-0.4-1,0.1-1.4
		c1.2-0.8,2.2-1.5,2.8-2c0.6-0.6,1.2-1.1,1.7-1.6c0.5-0.5,1-1,1.6-1.6c0.6-0.6,1.4-1.3,2.6-2.2c0.6-0.5,1.2-0.4,1.7,0.2
		c0.5,0.6,0.5,1.1,0,1.6c-1.1,1.1-1.8,2.1-2.3,3c-0.4,0.9-0.8,1.8-1.2,2.8c-0.6,1.6-0.8,2.6-0.4,3c0.4,0.4,1.1,0.5,2,0.4
		c0.9-0.2,1.9-0.5,2.9-0.9c1.1-0.5,1.9-0.9,2.6-1.2c2.1-1.1,4.4-2.4,6.9-4.1c2.5-1.7,4.9-3.4,7.4-5.2c0.3-0.4,0.5-0.6,0.8-0.6
		c0.2,0,0.5,0.1,0.9,0.3c0.5,0.6,0.3,1.2-0.4,1.8c-1,0.9-2.7,2.2-5,3.9c-2.3,1.7-4.8,3.3-7.4,4.8c-2.6,1.5-5.1,2.6-7.5,3.5
		C319.2,434.4,317.5,434.3,316.5,433.3z M321.6,414.8c-0.3-0.2-0.4-0.4-0.4-0.8c0-0.3,0.2-0.5,0.5-0.6c0.6-0.8,1.1-1.6,1.7-2.5
		c0.6-0.9,1.1-1.8,1.5-2.9c0.2-0.8,0.6-1,1.3-0.6c1,0.3,1.3,0.7,0.9,1.2c-1,2.8-2.3,4.9-3.8,6.2
		C322.7,415.5,322.1,415.4,321.6,414.8z"/>
	<path fill="#FDFDFE" stroke="#FDFDFE" stroke-width="2" stroke-miterlimit="10" d="M330.3,467.6c0-1.6,1.9-6.3,5.8-14.2
		c3.9-7.9,9.4-18.3,16.5-31.4c-0.2-0.7-0.3-1.4-0.2-2.2c0.1-0.8,0.3-1.5,0.5-2.2c0.2-0.6,0.6-1.1,1-1.4c0.4-0.3,0.9-0.3,1.6,0.1
		c1.1-1.8,2.5-4.2,4.1-7.1c1.7-2.9,3.2-5.3,4.5-7.2c-1.8,1.7-4,3.6-6.5,5.9c-2.6,2.2-5.1,4.4-7.5,6.5c-2.5,2.1-4.7,3.9-6.7,5.5
		c-2,1.6-3.3,2.7-4,3.3c-0.4,0.3-1.1,0.3-2.1,0c-0.2-0.9,0-1.5,0.4-1.8c4.5-3.8,9.4-7.8,14.6-12.2c5.2-4.3,10.2-8.8,14.9-13.3
		c0.8-1.3,1.9-3.1,3.3-5.3c1.4-2.3,2.9-4.5,4.5-6.7c1.6-2.2,3.2-4.2,4.8-6c1.7-1.8,3.1-2.8,4.5-3.2c0.4-0.1,0.9,0,1.4,0.1
		c1.5,0.7,1.7,2,0.5,4.1c-1.1,2.1-2.8,4.4-5,6.8c-2.2,2.4-4.4,4.7-6.8,6.9c-2.3,2.1-4,3.6-5,4.3c-1.9,3.1-3.9,6.5-6,10.3
		c-2.1,3.8-3.9,7-5.4,9.7l-0.8,1.5l-0.8,3.6c1.9,0.5,4,0.5,6.3,0c2.3-0.4,4.6-1.2,7-2.1c2.4-1,4.7-2.2,6.9-3.7c2.2-1.5,4.2-3,6-4.6
		c0.6-0.5,1.1-0.4,1.4,0.1c0.8,0.6,0.8,1.1,0,1.7c-2,1.7-4.2,3.3-6.7,4.9c-2.4,1.5-4.9,2.8-7.4,3.8c-2.5,1-4.9,1.7-7.3,2.1
		c-2.4,0.4-4.6,0.4-6.5-0.1c-0.7,3.8-1.9,7.8-3.4,11.9c-1.5,4.1-3.1,8.3-4.8,12.7c-1.5,3.4-3,6.5-4.5,9.4c-1.5,2.9-3,5.5-4.3,7.7
		c-0.8,0.8-1.6,1.6-2.4,2.4c-0.8,0.8-1.6,1.4-2.4,1.9c-0.8,0.5-1.6,0.5-2.2,0.1c-0.6-0.4-1.2-1-1.5-1.9L330.3,467.6z M337.1,464.4
		c1.3-1.9,2.7-4.4,4.3-7.3c1.6-2.9,3.1-6.1,4.6-9.4c1.5-3.6,2.8-7.1,4.1-10.6c1.2-3.5,2.4-6.8,3.5-10l0.7-3.9
		c-2.8,5.2-5.5,10.3-8.1,15.3c-2.6,5-4.9,9.5-7,13.6c-2.2,4.5-3.8,8-4.7,10.3c-0.9,2.3-1.5,3.9-1.7,4.6l0.1,0.7
		c0.3,0.2,0.6,0.2,1.1,0.2c0.3-0.3,0.7-0.6,1.3-1.1C335.7,466.2,336.3,465.4,337.1,464.4z M383.6,379.3c0.5-0.7,0.8-1.2,0.9-1.7
		c0.1-0.2,0.1-0.4,0.1-0.5c-0.6,0.3-2.1,1.6-4.3,3.7s-5.1,6-8.6,11.7c1.1-1.1,2.2-2.3,3.5-3.7c1.3-1.4,2.5-2.7,3.7-3.9
		c1.2-1.2,2.2-2.4,3.1-3.4C382.8,380.4,383.4,379.7,383.6,379.3z"/>
	<path fill="#FDFDFE" stroke="#FDFDFE" stroke-width="2" stroke-miterlimit="10" d="M400.2,420.6c-1.4-0.1-2.5-0.7-3.2-1.7
		c-0.8-1-1-2.2-0.6-3.5c-2.9,2.6-5.3,4.2-7.2,4.9c-1.9,0.7-3.4,0.7-4.4,0c-0.7-0.5-1.2-1.2-1.6-2.1c-0.4-1-0.3-2.4,0.1-4.2l-3.3,3
		c-0.9,0.5-1.6,0.5-2.1,0c-0.3-0.5-0.2-1,0.4-1.5c1.1-0.8,2.3-1.7,3.4-2.7c1.1-1.1,2-2,2.5-2.8l0.3-0.4c0.7-1,1.5-1.4,2.2-1.1
		c0.8,0.3,0.8,1,0,2.1l-0.6,0.8c-1.4,3.5-1.4,5.8-0.2,6.9c1,0.5,2.6,0,4.8-1.4c2.2-1.5,4.2-3.2,6.2-5.3c0.8-1.2,1.4-1.8,1.8-1.9
		c0.4-0.1,0.7,0,1,0.3c0.4,0.5,0.6,0.9,0.4,1.1c-0.2,0.2-0.4,0.7-0.6,1.4c-1,2.2-1.3,3.8-0.9,4.6c0.4,0.8,1.1,1.2,2.3,1.2
		c1.1,0,2.4-0.3,3.7-0.9c1.3-0.6,2.5-1.1,3.4-1.6c1.2-0.7,2.2-1.3,3.1-2c0.9-0.7,1.9-1.4,2.8-2.1c1-0.7,2-1.6,3.1-2.5
		c1.1-0.9,2.4-2,3.8-3.3c0.8-0.7,1.3-0.8,1.5-0.2c0.2,0.6,0.2,1,0,1.3c-1.7,1.8-3.5,3.5-5.5,5.2c-2,1.7-4,3.2-6.1,4.5
		c-2,1.3-4,2.4-5.9,3.1C403.3,420.3,401.6,420.7,400.2,420.6z"/>
	<path fill="#FDFDFE" stroke="#FDFDFE" stroke-width="2" stroke-miterlimit="10" d="M423.6,416.7c-1,0-2.1-0.4-3-1
		c-1-0.6-1.6-1.5-1.8-2.7c-0.1-0.7-0.1-1.4,0-2.3c0.1-0.8,0.3-1.7,0.5-2.7l0.6-0.8l-0.1-0.3c-0.7-0.5-0.6-0.9,0.1-1.4l1.2-0.9
		l0.7-1.9c1.8-3.5,4.4-7.7,7.6-12.5c3.3-4.8,6.8-9.4,10.5-13.9c3.7-4.5,7.5-8.6,11.3-12.3c3.8-3.7,7.1-6.3,10-7.8l1-0.2
		c1.1-0.2,1.8,0.2,1.9,1.1c0,1.3-0.7,3-2,5.2c-1.4,2.2-3.3,4.8-5.7,7.9c-1.2,1.5-3.1,3.6-5.6,6.5c-2.5,2.9-5.2,5.9-8.2,9.2
		c-3,3.3-6,6.5-9.1,9.7c-3.1,3.2-5.8,5.8-8.1,7.9l-2.7,2.2l-0.2,0.7c-0.5,1.1-0.9,2.2-1.2,3.2c-0.3,1-0.3,2-0.2,2.9
		c0.3,1.8,1.7,2.6,4.1,2.3c2.4-0.2,5.3-1,8.5-2.4c3.2-1.4,6.5-3,9.9-5c3.4-2,6.1-3.8,8.2-5.4l0.3-0.1c1.8-3.5,4-7.3,6.5-11.2
		c2.5-4,5.2-7.7,8.1-11.2c2.8-3.5,5.8-6.8,8.9-9.6c3.1-2.9,6-5.1,8.9-6.6c0-0.2,0.1-0.4,0.3-0.4c0.2,0,0.4-0.1,0.7-0.1
		c1.1-0.2,1.8,0.3,2,1.4c-0.1,1-0.8,2.7-2.1,4.9c-1.4,2.2-3.3,4.8-5.7,7.9c-1.2,1.5-2.8,3.3-4.5,5.4c-1.8,2.1-3.7,4.3-5.8,6.6
		c-2.1,2.3-4.3,4.7-6.6,7.1c-2.4,2.4-4.7,4.7-7,6.8l-2.7,2.2l-0.2,0.7c-0.5,1.1-0.9,2.3-1.1,3.4c-0.3,1.1-0.3,2-0.2,2.7
		c0.3,1.3,1.4,1.9,3.2,1.8c1.8-0.1,4-0.8,6.7-1.9c2.6-1.1,5.4-2.5,8.4-4.2c3-1.7,5.9-3.4,8.6-5.3c2.7-1.9,5.2-3.6,7.3-5.1
		c2.1-1.6,3.6-2.8,4.4-3.6c0.8-0.7,1.5-0.8,2-0.3c0.5,0.5,0.4,1.1-0.4,1.8c-0.8,0.9-2,2.1-3.8,3.5c-1.8,1.4-3.8,2.9-6.1,4.5
		c-2.3,1.6-4.7,3.2-7.4,4.8c-2.7,1.6-5.3,3-7.8,4.3c-2.6,1.2-4.9,2.3-7.2,3c-2.2,0.8-4.1,1.1-5.6,0.9c-1-0.1-2-0.4-3-1
		c-1-0.6-1.6-1.5-1.8-2.7c-0.1-0.7-0.1-1.4,0-2.3c0.1-0.8,0.3-1.7,0.5-2.7l0.6-0.8c-2.1,1.3-4.3,2.6-6.7,3.8
		c-2.4,1.3-4.8,2.4-7.2,3.4c-2.4,1-4.7,1.8-6.9,2.3C427.2,416.7,425.2,416.9,423.6,416.7z M454.4,368.9c1.4-1.6,2.6-3.1,3.5-4.3
		c0.9-1.2,1.7-2.4,2.4-3.6l0.8-1.2l0.5-1.1l-1,0.5c-3.6,2.5-7.2,5.5-10.7,9.2c-3.5,3.7-6.8,7.4-10,11.3c-3.1,3.9-5.9,7.6-8.4,11.3
		c-2.5,3.7-4.5,6.7-6,9.2l2.1-2.1c1.8-1.7,4-3.9,6.6-6.8c2.6-2.8,5.3-5.7,8-8.5c2.7-2.9,5.1-5.6,7.3-8.2
		C451.8,372,453.4,370.1,454.4,368.9z M477.7,375.6c1.4-1.6,2.6-3.1,3.5-4.3c0.9-1.2,1.7-2.4,2.4-3.6l0.8-1.2l0.5-1.1l-0.9,0.8
		c-3.6,2.4-6.8,4.9-9.6,7.7c-2.8,2.8-5.2,5.6-7.4,8.5c-2.2,2.9-4.2,5.8-6,8.6c-1.8,2.8-3.4,5.5-4.9,7.9l1.8-1.7
		c1.8-1.7,3.6-3.5,5.5-5.5c1.9-2,3.7-4,5.5-6c1.8-2,3.4-3.9,4.9-5.7C475.4,378.3,476.7,376.9,477.7,375.6z"/>
	<path fill="#FDFDFE" stroke="#FDFDFE" stroke-width="2" stroke-miterlimit="10" d="M476.4,436.4c-0.6-1.7-0.6-3.6,0.3-5.6
		c0.8-2,2.2-3.9,4.1-5.7c1.9-1.8,4.2-3.5,6.9-5c2.7-1.5,5.6-2.6,8.8-3.4l1.3-0.2c1.4-4.5,2.5-8,3.3-10.6c0.8-2.6,1.3-4.5,1.7-5.8
		c0.3-1.3,0.6-2.2,0.8-2.6c0.2-0.4,0.3-0.8,0.3-1.2l-1.3,1.4c-1.4,1.6-3,2.9-4.5,3.7c-1.6,0.8-3.1,0.9-4.5,0.2l-0.1-0.3
		c-1.2-0.8-1.8-2.3-1.8-4.5l0.4-1.5l-3.3,3c-0.9,0.5-1.6,0.5-2.1,0c-0.3-0.5-0.2-1,0.4-1.5c1.1-0.8,2.3-1.7,3.4-2.7
		c1.1-1.1,2-2,2.5-2.8l0.3-0.4c0.7-1,1.5-1.4,2.2-1.1c0.7,0.3,0.7,1,0,2.1l-0.6,0.8c-1.3,3.6-1.6,5.7-0.6,6.3l0.1,0.3l0.4,0.3
		c1.3,0.1,2.9-0.6,4.9-2.3c2-1.7,3.6-3.6,4.8-5.9l-0.1-0.3c-0.2,0.3-0.2,0.2-0.1-0.2c0.1-0.4,0.5-0.5,1.1-0.4l0.3-0.1
		c0.2,0.1,0.4,0.2,0.4,0.3c0,0.1,0.1,0.2,0.2,0.3c0,0.1,0.1,0.2,0.2,0.3l0.1,0.7c-0.6,3.9-1.5,7.9-2.6,12.1
		c-1.1,4.2-2.4,8.1-3.7,11.8l3.4-0.6c1.7,0,3.5,0.2,5.4,0.4c1.9,0.2,3.7,0.6,5.6,1.2c0.7,0.2,0.9,0.8,0.6,1.6
		c-0.4,0.5-0.8,0.7-1.3,0.6c-2.5-0.8-4.8-1.3-7-1.3c-2.2,0-4.4,0-6.7,0.2l-1,0.2c-2.5,5.6-5.5,10.2-8.9,13.7
		c-3.4,3.5-6.8,5.6-10.2,6.2c-0.9,0.2-1.8,0.1-2.6-0.1C477,437.8,476.5,437.3,476.4,436.4z M494.3,419.8c-1.2,0.2-2.3,0.5-3.3,1
		c-1,0.5-1.9,0.9-2.9,1.4c-3.7,2-6.4,4.3-8.2,6.8c-1.8,2.5-2.3,4.7-1.6,6.6c0,0.1,0.2,0.2,0.4,0.3c0.3,0.2,0.7,0.2,1.4,0.1
		c3.2-0.6,6.2-2.4,8.9-5.5c2.7-3.1,5.3-7,7.9-11.5L494.3,419.8z"/>
	<path fill="#FDFDFE" stroke="#FDFDFE" stroke-width="2" stroke-miterlimit="10" d="M679,336.3c2.8-3.8,5.6-7.4,8.3-10.7
		c2.7-3.3,5.2-6.3,7.4-9c1.9-2.6,3.3-4.6,4.4-6c1.1-1.4,1.9-2.4,2.3-3.1l0.3-0.4l-0.1-0.3c-0.3-0.2-0.5-0.3-0.7-0.4
		c-0.2-0.1-0.5,0-1.1,0.4c-0.9,0.4-1.8,0.9-2.9,1.4c-1.1,0.6-2.3,1.5-3.7,2.8c-2.8,2.1-5.9,4.8-9.5,8.3c-3.6,3.4-7.3,7-11.1,10.8
		c-4.9,5.6-9.7,11-14.3,16.2c-4.6,5.2-8.3,9.5-11.1,12.7l-0.9,0.8l-0.6,0.8c-1.8,2.2-2.8,3.2-2.9,3.3c-0.5,0.4-1.1,0.5-1.7,0.3
		c-0.6-0.7-0.6-1.3,0-1.7c0.1-0.1,0.3-0.4,0.7-0.8c0.2-0.3,0.5-0.6,0.9-1c0.4-0.4,0.8-0.9,1.3-1.4l0.5-1.1l8-9.7
		c4.2-5.6,8.3-11,12.1-16.3c3.9-5.3,7.3-10.3,10.2-14.8c1.9-3.1,3.6-5.9,5.1-8.6c1.5-2.6,2.6-5,3.3-7c0.9-2.2,1.3-3.7,1.2-4.5
		c-0.1-0.8-0.2-1.3-0.5-1.5c-4-2-11.8,2.3-23.4,12.7c-3.8,3.8-8,8.1-12.4,12.8c-4.4,4.8-8.9,9.8-13.6,15.1l-2.6,3.2l-0.8,1.2
		c-2.1,3.8-4.4,7.7-6.9,11.6c-2.5,3.9-5.1,7.7-7.8,11.3c-4.5,6.2-9.1,12.1-13.7,17.6c-4.7,5.6-9.1,10.5-13.2,14.6
		c-1.7,1.8-3.4,3.5-5.2,5.2c-1.8,1.7-3.5,3.2-5.2,4.5c-1.7,1.3-3.2,2.4-4.5,3.3c-1.3,0.9-2.4,1.2-3.2,1.1c-0.3-0.2-0.4-0.4-0.5-0.6
		c-0.6-0.1-0.9-0.4-0.8-0.7c0.1-0.4,0.3-0.7,0.9-1c1-0.4,3-2.3,6-5.8c3-3.5,7.1-8.3,12.3-14.6c4.9-5.9,10.2-12.4,16-19.5
		c5.8-7.1,11.8-14.4,18-21.9l6.6-7.7l1.5-3.4c3.4-6.5,5.6-12.3,6.7-17.6c1.1-5.2,0.5-9.4-1.8-12.3l-2-1.7l-1.2-0.8
		c-2.1-0.9-4.7-1.3-7.9-1.2c-3.1,0.1-6.6,0.7-10.4,1.7c-3.8,1-7.8,2.4-11.9,4.1c-4.1,1.7-8.2,3.8-12.2,6.1
		c-4.4,2.5-8.5,5.1-12.2,7.9c-3.7,2.8-6.9,5.6-9.5,8.4c-2.6,2.8-4.6,5.5-5.8,8.2c-1.2,2.6-1.5,5-0.9,7.1c0.3,1.2,1.3,2,3,2.3
		c1.7,0.3,3.8,0.1,6.3-0.5c2.5-0.6,5.5-1.6,8.7-3c3.3-1.4,6.7-3.1,10.3-5c3.6-2.1,6.9-4.3,9.9-6.5c3.1-2.3,5.7-4.4,7.9-6.5
		c2.2-2.1,3.8-4,4.9-5.8c1.1-1.8,1.4-3.3,1-4.5c0-0.2,0-0.5,0.1-0.9c0.1-0.4,0.3-0.6,0.7-0.6c0.6-0.1,1.1,0.2,1.5,0.8
		c0.6,1.7,0.3,3.7-1,5.9c-1.3,2.2-3.2,4.4-5.6,6.7c-2.4,2.3-5.2,4.6-8.4,6.9c-3.2,2.3-6.4,4.3-9.7,6.1c-3.3,1.8-6.6,3.5-10.1,5.1
		c-3.5,1.6-6.7,2.7-9.8,3.4c-3.1,0.7-5.7,0.9-7.9,0.5c-2.2-0.4-3.6-1.7-4.2-3.9c-0.7-2.6-0.3-5.4,1.1-8.4c1.4-2.9,3.5-5.9,6.3-8.9
		c2.8-3,6.2-5.9,10.1-8.7c3.9-2.9,8-5.5,12.3-7.8c4.2-2.4,8.5-4.6,13-6.6c4.5-1.9,8.9-3.4,13.1-4.4c4.2-1,8-1.4,11.5-1.3
		c3.5,0.2,6.3,1,8.4,2.6l0.3-0.1c3.2,2.5,4.7,6,4.7,10.5c-0.1,4.6-1.2,9.7-3.3,15.5l-1.8,3.8l6.1-6.6c3.1-3.3,6.1-6.5,9-9.5
		c2.9-3,5.7-5.8,8.3-8.3c2.5-2.4,4.9-4.6,7.4-6.5c2.5-2,4.8-3.6,7-4.8c2.2-1.2,4.3-2.1,6.2-2.5c1.9-0.4,3.6-0.2,5,0.4
		c1.3,0.7,1.9,1.9,1.8,3.5c-0.1,1.6-0.5,3.6-1.4,5.9c-0.9,2.3-2.1,4.8-3.6,7.4c-1.5,2.7-3.1,5.4-4.7,8.1c-1.1,1.6-2.2,3.2-3.3,4.9
		c-1.1,1.7-2.2,3.4-3.3,5.2l-3.7,4.8l4.1-4.5c3.8-4,7.5-7.7,11.1-11.1c3.6-3.4,6.8-6.2,9.8-8.4c1.4-1.3,2.7-2.3,3.9-3
		c1.2-0.7,2.3-1.3,3.3-1.7c1.2-0.2,2.2-0.2,3.1,0.2c0.8,0.3,1.3,1.2,1.6,2.5l0.1,0.7l-0.3,0.1c-0.1,0.7-0.8,1.9-2.1,3.6
		c-1.3,1.7-2.9,3.8-5,6.4c-2,2.5-4.4,5.5-7.1,8.8c-2.7,3.3-5.6,7-8.7,11c-1.3,1.8-3.1,4.4-5.3,7.7c-2.3,3.3-4.6,6.8-6.9,10.7
		c-2.3,3.9-4.5,7.6-6.3,11.4c-1.9,3.7-3.2,7-3.9,9.7c-0.7,2.8-0.5,4.7,0.6,5.9c1.1,1.1,3.4,0.9,7.1-0.6c1.3-0.5,3.2-1.3,5.6-2.6
		c2.4-1.3,5.1-2.7,8.1-4.4c2.9-1.7,6-3.4,9.2-5.4c3.2-1.9,6.2-3.8,9-5.6c2.8-1.8,5.3-3.4,7.6-4.9c2.3-1.5,4-2.7,5.1-3.7
		c0.8-0.5,1.5-0.5,2-0.1c0.5,0.4,0.3,1.1-0.6,1.9c-1.2,1-3,2.3-5.5,4c-2.4,1.6-5.2,3.4-8.2,5.2c-3,1.8-6.2,3.8-9.5,5.8
		c-3.3,2-6.4,3.8-9.4,5.5c-3,1.7-5.7,3.1-8.1,4.3c-2.4,1.2-4.1,2-5.2,2.4c-3.8,1.3-6.5,1.5-8.1,0.5c-1.6-1-2.5-2.5-2.6-4.6
		c-0.1-2.7,0.8-6.2,2.7-10.5c1.9-4.2,4.2-8.6,6.8-13c2.6-4.4,5.3-8.6,8-12.4C675.4,341,677.5,338.2,679,336.3z M588.1,394.4
		c4.1-4.4,8.5-9.3,13.1-14.8c4.6-5.5,9.2-11.3,13.5-17.4l9.2-13l-7.4,9.2l-25.2,30.2c-1.7,2-3.3,4-4.8,5.9c-1.5,1.9-2.9,3.7-4.4,5.3
		l-1.2,1.2l1.2-0.9L588.1,394.4z"/>
	<path fill="#FDFDFE" stroke="#FDFDFE" stroke-width="2" stroke-miterlimit="10" d="M706.4,368.9c-1.5-0.6-2.2-1.7-2.1-3.3
		c0.1-1.7,0.6-3.4,1.7-5.1c1.1-1.7,2.5-3.4,4.3-4.9c1.8-1.5,3.7-2.5,5.7-2.8c1.3-0.2,2.6-0.2,3.8,0.2c1.2,0.4,2,0.9,2.4,1.5
		c0.3,0.3,0.2,0.6-0.1,1c-0.3,0.3-0.7,0.4-1.1,0.3c-0.6-0.2-1.2-0.5-1.8-0.8c-0.6-0.3-1.5-0.3-2.9-0.1c-1.3,0.2-2.7,0.9-4.1,2.1
		c-1.4,1.2-2.6,2.4-3.6,3.8c-1,1.4-1.6,2.6-1.9,3.8c-0.3,1.2-0.1,1.9,0.6,2.2c1,0.1,2.3-0.4,3.9-1.4c1.6-1,3.2-2.2,4.8-3.6
		c1.7-1.4,3.3-2.8,4.8-4.4c1.5-1.5,2.8-2.8,3.9-4c1-1.1,1.7-1.3,2.2-0.7c0.5,0.6,0.5,1.2,0,1.7c-1.3,1.3-2,2.7-2.3,4.3
		c-0.2,1.6,0.1,2.5,0.9,2.7c0.8,0.2,2.1-0.2,3.8-1.2c1.7-1,3.4-2.2,5.1-3.6c1.7-1.3,3.3-2.6,4.9-3.9c1.5-1.3,2.5-2.1,2.8-2.6
		c0.6-0.5,1.2-0.4,1.7,0.2c0.5,0.6,0.5,1.1,0,1.6c-0.7,0.6-1.8,1.6-3.3,2.9c-1.5,1.4-3.1,2.7-4.9,4c-1.8,1.3-3.6,2.5-5.4,3.5
		c-1.8,1-3.4,1.4-4.7,1.3c-1.3-0.1-2.2-0.7-2.6-1.8c-0.5-1.1-0.5-2.2-0.1-3.3c-1.1,1.1-2.4,2.3-3.9,3.7c-1.5,1.4-3.1,2.6-4.7,3.7
		c-1.7,1.1-3.2,2-4.6,2.6C708.2,369.1,707.2,369.3,706.4,368.9z"/>
	<path fill="#FDFDFE" stroke="#FDFDFE" stroke-width="2" stroke-miterlimit="10" d="M738.5,364.5c-1-0.3-1.6-0.8-1.8-1.7
		c-0.3-0.8-0.3-1.7-0.1-2.7c0.2-1,0.5-2,1-3c0.5-1,1.1-1.9,1.6-2.7c1.1-1.9,2.4-3.7,4.1-5.5c1.7-1.7,3.3-2.7,4.8-3
		c0.7-0.1,1.4-0.1,2.2,0c0.8,0.1,1.6,0.4,2.2,0.8c0.3-3,1.2-6.5,2.7-10.3c1.5-3.8,3.3-7.4,5.3-10.7c2-3.3,4.2-5.9,6.4-7.8
		c2.3-1.9,4.4-2.4,6.4-1.6c1.2,1.1,1.6,2.7,1.1,4.8c-0.5,2.2-1.4,4.5-2.8,7c-1.4,2.5-3,5.2-4.9,7.9c-1.9,2.7-3.6,5.2-5,7.4
		c-1,1.4-2.1,2.9-3.2,4.3c-1.1,1.4-2.4,3-3.8,4.9l0.1,0.3c0.2,0.9,0.4,1.4,0.6,1.6c0.6,0.8,1.6,1.2,3,1.1c1.4-0.1,3-0.5,4.9-1.4
		c1.9-0.8,3.9-2,6-3.6c2.2-1.6,4.3-3.4,6.3-5.5c0.7-0.5,1.3-0.6,1.7-0.3c0.6,0.7,0.6,1.3,0,1.7c-2,2.1-4.1,4-6.5,5.9
		c-2.4,1.9-4.8,3.3-7.1,4.3c-2.4,1-4.5,1.5-6.4,1.3s-3.3-1.4-4.1-3.5c-0.9,0.8-2,1.9-3.2,3.1c-1.2,1.2-2.5,2.4-3.8,3.5
		c-1.3,1.1-2.6,2-3.9,2.6c-1.3,0.7-2.4,0.8-3.4,0.4L738.5,364.5z M752.2,349.7l-0.1-0.3l-0.3,0.1c-0.2,0-0.4-0.2-0.5-0.6
		c-0.4-0.6-1.4-0.8-2.9-0.5c-1,0-2.3,0.7-3.7,2.1c-1.4,1.5-2.7,3.1-3.7,5c-2.3,3.6-2.9,5.9-1.9,6.9l0.4,0.3c0.4,0.2,1.1-0.1,2.3-0.9
		c1.1-0.8,2.4-1.7,3.7-2.8c1.3-1.1,2.6-2.3,3.8-3.5c1.2-1.2,2.2-2.3,3-3.3L752.2,349.7z M771.7,318.3c-1.5-0.2-3.3,0.9-5.4,3.3
		c-2.1,2.4-4,5.3-5.8,8.8c-1.8,3.4-3.3,6.9-4.5,10.5c-1.2,3.6-1.8,6.6-1.8,8.9c1.1-1.2,2.3-2.8,3.8-4.9c1.5-2,3-4.2,4.6-6.6
		c1.6-2.3,3.1-4.7,4.5-7c1.4-2.3,2.6-4.4,3.6-6.3c0.9-1.9,1.5-3.5,1.8-4.7C772.8,319.1,772.5,318.4,771.7,318.3z"/>
	<path fill="#FDFDFE" stroke="#FDFDFE" stroke-width="2" stroke-miterlimit="10" d="M768.1,353.5c-0.9-1.2-1.3-2.5-1.2-3.9
		c0.1-1.3,0.5-2.7,1.2-3.9c0.7-1.3,1.6-2.4,2.8-3.4c1.2-1,2.3-1.8,3.5-2.3c0.9-0.4,1.7-0.6,2.4-0.7c0.7-0.1,1.4,0.1,2.1,0.6
		c0.5,0.4,0.8,0.8,0.9,1.2c0.3,0.9,0,1.9-0.8,3c-0.8,1.1-1.8,2.2-2.9,3.3c-1.1,1.1-2.4,2-3.7,2.8c-1.3,0.8-2.3,1.4-2.9,1.7
		c1.1,1.9,3,3,5.6,3.4c2.6,0.4,5.6,0.3,9-0.3c3.4-0.6,7.1-1.6,11.1-3c4-1.4,7.9-3,11.7-4.9c3.8-1.8,7.4-3.7,10.8-5.8
		c3.3-2.1,6.2-4.1,8.5-6.1c0.6-0.7,1.1-0.8,1.7-0.3c0.5,0.5,0.5,0.9-0.1,1.4c-1.8,1.8-4.3,3.8-7.5,6c-3.3,2.2-6.8,4.3-10.8,6.3
		c-3.9,2-8,3.8-12.3,5.3c-4.3,1.5-8.3,2.7-12.1,3.4c-3.8,0.7-7.2,0.8-10.2,0.3C771.7,357.1,769.5,355.7,768.1,353.5z M777.5,341.9
		c-0.1-0.4-0.7-0.5-1.7,0c-1.5,0.6-2.9,1.7-4.3,3.2c-1.4,1.5-2.1,3.2-2.2,5.1c0.2-0.1,0.8-0.6,1.7-1.2c0.9-0.7,1.9-1.4,2.9-2.2
		c1-0.8,1.9-1.6,2.7-2.5C777.2,343.2,777.6,342.5,777.5,341.9z"/>
</g>
<g>
	<path fill="#FFFFFF" stroke="#FFFFFF" stroke-miterlimit="10" d="M235.6,600.4c-0.4-0.6-0.5-1.1-0.2-1.4c3.9-4.4,8-9.4,12.3-15.1
		c4.3-5.7,8.5-11.8,12.8-18.3l4-6.6l-2.6,0.7c-2.8,0.5-5.6,0.8-8.5,1.1c-2.9,0.3-5.8,0.3-8.8,0.2l-0.3,0l-0.3-0.2
		c-0.2-0.2-0.4-0.4-0.4-0.8c0-0.1,0.1-0.3,0.2-0.5c0.1-0.1,0.2-0.2,0.3-0.2c0-0.2,0-0.3,0.1-0.3l0.1,0c0.5-0.3,2.8-0.8,6.7-1.5
		c3.9-0.7,8.9-1.7,14.9-2.9l2.3-0.7l5.2-8.3l13.1-19.9c1.1-1.6,2.2-3.1,3.2-4.7c1-1.6,2-3.1,3-4.6l0.2-0.3l0.2-0.6
		c2.6-5.7,4.5-10.7,5.6-15.1c1.1-4.4,1.1-7.9,0.1-10.4l-1.1-1.6l-1-0.7c-1.2-0.8-2.9-1-4.9-0.8c-2.1,0.3-4.4,1-7.1,2.1
		c-2.6,1.1-5.4,2.6-8.3,4.5c-2.9,1.9-5.8,4.1-8.8,6.5c-3.2,2.5-6.1,5.1-8.9,8c-2.8,2.8-5.2,5.6-7.3,8.3c-2.1,2.7-3.7,5.3-4.7,7.8
		c-1.1,2.5-1.5,4.7-1.3,6.5c0,2.1,1.5,2.7,4.5,1.9c1.6-0.6,3.4-1.4,5.4-2.6c2-1.2,4-2.6,6-4.3c2.1-1.6,4.1-3.4,5.9-5.4
		c1.9-2,3.4-3.9,4.8-5.7c1.3-1.8,2.4-3.6,3.1-5.2c0.7-1.6,0.9-3,0.7-4c0-0.2,0-0.4,0.1-0.6c0.1-0.2,0.3-0.3,0.6-0.4
		c0.3,0,0.5,0,0.7,0.2c0.2,0.2,0.3,0.4,0.3,0.5c0.3,1.4,0.1,3.1-0.7,5c-0.8,1.9-1.9,3.9-3.3,5.9s-3.2,4-5.1,6c-2,2-3.9,3.8-5.9,5.4
		c-2,1.5-4,2.9-6.1,4.2c-2,1.3-3.9,2.2-5.6,2.7c-1.9,0.6-3.5,0.7-4.8,0.3c-1.3-0.4-2.2-1.6-2.5-3.6c-0.2-2.1,0.2-4.6,1.4-7.3
		c1.2-2.8,2.9-5.6,5.1-8.5c2.2-2.9,4.7-5.8,7.6-8.7c2.9-2.9,5.9-5.6,9.1-8.1c3-2.4,6.1-4.6,9.4-6.6c3.3-2.1,6.4-3.7,9.3-4.9
		c2.9-1.2,5.6-1.9,8.1-2c2.5-0.1,4.4,0.6,5.8,2c1.8,2.1,2.6,4.9,2.4,8.6c-0.2,3.7-1.3,7.9-3,12.9l-0.4,1l1.2-1.7
		c3.1-4.2,6.1-8,9.2-11.5c3-3.5,6-6.5,8.9-8.9c2.9-2.4,5.7-4.2,8.5-5.4c2.7-1.2,5.4-1.6,7.9-1.2c3.7,0.6,6,2.3,7.1,5.2
		c1.1,2.8,1,6.3-0.1,10.3c-1.1,4-3.2,8.5-6.2,13.2c-3,4.8-6.8,9.6-11.2,14.5c-3.8,4.2-8.1,8.3-13,12.4c-4.9,4.1-10.2,7.7-15.8,11
		l-1.1,0.8l-1.9,0.9c3.9-0.9,8.5-2.1,13.8-3.6c5.3-1.5,10.7-3.2,16.3-5.1c5.6-1.9,10.9-4.1,16.1-6.5c5.2-2.4,9.5-5,13-7.8
		c0.2,0,0.4,0,0.6,0c0.2,0,0.4,0.2,0.7,0.4c0.2,0.2,0.3,0.4,0.3,0.7c-0.1,0.3-0.2,0.5-0.4,0.5c-2.5,2-5.6,4-9.3,5.9
		c-3.6,1.9-7.6,3.7-11.8,5.4c-4.2,1.7-8.6,3.2-13,4.7c-4.5,1.5-8.8,2.8-13.1,4c-4.3,1.2-8.3,2.3-12.1,3.2c-3.8,1-7,1.8-9.8,2.4
		c-1.6,0.7-3.1,1.3-4.6,1.9c-1.5,0.6-2.9,1.1-4.4,1.5l-1.7,0.6l-1.4,2.3c-3.3,4.7-6.5,9.2-9.5,13.4c-3.1,4.3-5.9,8.2-8.6,11.8
		c-1.6,1.9-3.1,3.8-4.7,5.6c-1.6,1.8-3.1,3.4-4.5,4.9c-1.4,1.5-2.6,2.7-3.7,3.6c-1.1,1-1.9,1.6-2.6,1.8c-0.1,0-0.2,0-0.3-0.1
		c-0.1,0-0.2,0-0.3,0C235.8,600.4,235.7,600.4,235.6,600.4z M267.4,558.5l-5.5,8c-1.6,2.5-3.2,5-4.7,7.3c-1.6,2.3-3.2,4.7-4.8,7
		l-0.8,1.3c2.6-3.5,5.3-7.2,8.2-11.3c2.9-4,5.8-8.2,8.9-12.6L267.4,558.5z M266.2,556.6l0.2-0.3l-0.3,0c-1.6,0.5-3.1,0.8-4.6,1
		c-1.4,0.2-2.9,0.6-4.3,1l-1.7,0.3l-5,0.2c3.9,0,7.6-0.3,11.1-0.9L266.2,556.6z M271.9,553l2.9-4c1.6-2.6,3.2-5.2,4.8-7.7
		c1.5-2.5,3-5,4.4-7.5l2.5-4.6l-4.7,7.3c-2.4,3.4-4.6,6.7-6.4,9.9l-4.6,6.7L271.9,553z M284.4,550.1l3.6-1.8
		c6.6-3.4,12.7-7.4,18.3-11.9c5.7-4.5,10.7-9.2,15.2-14c4.5-4.8,8.1-9.4,10.9-14c2.8-4.6,4.7-8.8,5.8-12.7c1.2-3.7,1.3-6.8,0.4-9
		c-0.9-2.3-2.8-3.6-5.8-4c-2.3-0.3-4.8,0.2-7.5,1.4c-2.7,1.3-5.5,3.3-8.4,6c-3,2.7-6,6-9.2,9.9c-3.2,3.9-6.5,8.2-10,13l-2.9,4
		c-2.4,5.3-5.2,10.8-8.4,16.3c-3.2,5.6-6.5,11.1-10,16.6l-1.6,2.6l1.4-0.2l8-2.2L284.4,550.1z"/>
	<path fill="#FFFFFF" stroke="#FFFFFF" stroke-miterlimit="10" d="M362.7,516.9c-0.8,0.7-1.5,1.4-2.3,2.2c-1.3,1.1-2.9,2.7-4.9,4.6
		l-2.9,7.9c0.7-0.8,1.7-1.8,3.2-3c1.5-1.2,3.1-2.4,4.7-3.7c1.7-1.2,3.3-2.3,4.9-3.2c1.6-0.9,2.9-1.4,4-1.5c1.6-0.3,2.7,0.4,3.3,1.8
		c0.2,0.9,0,2-0.9,3.4c-0.8,1.4-1.5,2.7-2,3.8c-0.6,1.1-0.7,1.9-0.5,2.2c0.2,0.4,1.4-0.1,3.5-1.5c0.9-0.5,2-1.2,3.2-2.1
		c1.2-0.8,2.6-1.7,3.9-2.6c1.4-0.9,2.7-1.8,4.1-2.7c1.3-0.9,2.5-1.8,3.4-2.6c0.5-0.4,1-0.3,1.4,0.1c0.4,0.5,0.4,0.8,0,1.1
		c-0.5,0.5-1.4,1.2-2.5,2.2c-1.2,1-2.5,2-3.9,3.1c-1.5,1.1-3,2.1-4.7,3.2c-1.7,1.1-3.2,2-4.6,2.7c-1.4,0.7-2.7,1.2-3.8,1.4
		c-1.1,0.2-1.9,0-2.3-0.7c-0.4-0.5-0.4-1.3-0.1-2.2c0.3-0.9,0.7-1.9,1.3-2.9c0.6-1,1.1-2,1.6-2.9c0.5-1,0.8-1.8,0.9-2.4
		c-0.2-0.7-1-0.7-2.5,0c-1.5,0.6-3.2,1.6-5.2,3c-2,1.4-4.1,2.9-6.2,4.7c-2.1,1.8-3.9,3.5-5.3,5.2c-0.2,0.5-0.6,0.7-1,0.5
		c-0.5-0.2-0.7-0.6-0.5-1.1c0.1-1.2,0.3-2.5,0.7-4c0.4-1.4,0.9-2.9,1.5-4.4l-3.1,2.6c-0.6,0.5-1.1,0.5-1.5-0.1
		c-0.2-0.2-0.3-0.4-0.2-0.7c0.1-0.3,0.3-0.6,0.5-0.8c1-0.7,1.9-1.5,2.8-2.4c0.9-0.8,1.9-1.7,2.9-2.7c1.2-2.9,2.7-5.7,4.3-8.6
		c1.7-2.8,3.5-5.6,5.4-8.1c1.5-1.9,2.9-3.6,4.4-5c1.4-1.4,2.8-2.7,4-3.8c1.2-1,2.4-1.8,3.6-2.4c1.2-0.6,2.2-0.7,3.1-0.2
		c1.6,0.8,1.3,3.1-0.9,6.9C375.3,505.1,370.3,510.3,362.7,516.9z M377.4,495.8c-0.2-0.2-0.7-0.1-1.4,0.3c-0.7,0.4-1.8,1.2-3.2,2.5
		c-3.8,3.3-7.1,6.9-9.8,10.7c-2.7,3.8-4.6,7.2-5.9,9.9l3.4-2.9c1.6-1.5,3.5-3.4,5.7-5.5c2.2-2.1,4.2-4.2,6-6.2
		c1.8-2.1,3.3-3.9,4.4-5.5C377.7,497.5,378,496.4,377.4,495.8z"/>
	<path fill="#FFFFFF" stroke="#FFFFFF" stroke-miterlimit="10" d="M387,529.3c-1.3-0.8-2-1.8-2-3.2c0-1.3,0.4-2.7,1.1-4
		c0.8-1.4,1.7-2.6,2.9-3.8c1.2-1.2,2.3-2.1,3.3-2.6c0.2-0.1,0.5-0.2,0.9-0.3c0.4-0.1,0.7,0,0.7,0.3c0.3,0.4,0.2,0.8-0.1,1.2
		c-0.7,0.8-1.5,1.8-2.6,2.9c-1.1,1.1-2.1,2.1-3.1,3.1c-0.9,1.6-1.1,3-0.5,4.1c0.4,0.8,1.4,1.1,2.8,0.9c1.4-0.2,3-0.9,4.6-2.1
		c-1.2-0.8-1.9-1.9-2-3.4c-0.1-1.5,0.2-2.9,0.8-4.4c0.6-1.5,1.4-2.8,2.5-4c1.1-1.2,2.2-1.8,3.3-1.9c0.3,0,0.5-0.1,0.7,0
		c0.2,0,0.5,0.1,0.8,0.4c0.7,0.7,1,1.6,1,2.8c-0.1,1.2-0.3,2.4-0.7,3.7c-0.4,1.3-1,2.4-1.6,3.5c-0.6,1.1-1.1,1.8-1.5,2
		c1,0,2.3-0.3,3.9-1c1.6-0.7,3.3-1.5,4.9-2.4c1.7-0.9,3.3-1.9,4.8-2.9c1.5-1,2.6-1.9,3.3-2.6c0.8-0.1,1.2,0,1.3,0.4
		c0.3,0.4,0.2,0.8-0.1,1.2c-0.9,0.8-2.1,1.8-3.7,2.9c-1.6,1.1-3.3,2.1-5.2,3.1c-1.9,1-3.8,1.8-5.7,2.5c-1.9,0.7-3.6,1-5,0.9
		c-2.2,2-4.2,3.2-6,3.3C389.2,530,387.8,529.8,387,529.3z M399.6,513.9c-0.7,0-1.4,0.5-2.1,1.5c-0.7,1-1.3,2-1.8,3.2
		c-0.5,1.2-0.7,2.3-0.7,3.5c0,1.1,0.4,1.9,1.3,2.2c0.7-0.8,1.3-1.8,1.9-2.9c0.6-1.1,1.1-2.3,1.5-3.4c0.4-1.1,0.6-2,0.6-2.8
		C400.2,514.3,400,513.9,399.6,513.9z"/>
	<path fill="#FFFFFF" stroke="#FFFFFF" stroke-miterlimit="10" d="M409.9,502.7c-0.2,0-0.6,0.2-1.3,0.4c-0.7,0.2-1,0-1.1-0.6
		c-0.1-0.5,0.1-0.9,0.6-1.1c0.2-0.1,0.4-0.2,0.7-0.3c2.5-0.7,5.4-1.4,8.8-2.1c3.4-0.7,7-1.4,10.7-2c0.7-0.9,1.8-2.1,3.2-3.6
		c1.4-1.5,2.8-2.9,4.3-4.3c1.5-1.4,3-2.7,4.4-3.7c1.4-1.1,2.5-1.7,3.4-1.8c0.5-0.1,0.9,0,1.2,0.3c0.3,0.3,0.5,0.6,0.5,0.9
		c0,1.1-0.6,2.5-1.8,4.3c-1.2,1.8-2.8,3.9-4.8,6.3l11.7-1l0.9,0.1c0.5,0.2,0.8,0.6,0.8,1.1c-0.1,0.3-0.5,0.5-1.2,0.6
		c-0.4,0.1-0.7,0.1-1,0c-2.2,0.2-4.4,0.4-6.6,0.6c-2.1,0.3-4.3,0.6-6.5,0.9c-2.8,3.2-5.7,6.3-8.7,9.4c-3,3-6.1,5.7-9.5,8.1
		c-0.5,0.9-1,2-1.4,3.4c-0.4,1.4-0.5,2.5-0.4,3.2c0.3,1.1,1.2,1.7,2.7,1.7c1.5,0,3.4-0.3,5.6-1c2.2-0.7,4.6-1.6,7.2-2.9
		c2.6-1.3,5-2.5,7.4-3.8c2.4-1.3,4.4-2.5,6.2-3.8c1.8-1.2,3-2.2,3.7-2.9c0.7-0.6,1.3-0.7,1.7-0.3c0.5,0.4,0.3,0.9-0.3,1.5
		c-1,1.2-2.9,2.6-5.7,4.4c-2.8,1.8-5.8,3.5-9.1,5.2c-3.3,1.7-6.5,3.1-9.8,4.2c-3.2,1.1-5.8,1.5-7.7,1.3c-1.1,0-2-0.3-2.7-0.8
		c-0.7-0.5-1.2-1.3-1.4-2.4c-0.1-0.6-0.1-1.2-0.1-1.9c0-0.7,0.2-1.5,0.6-2.3l0.2-0.3l-2.4,1.6c-0.2,0.2-0.4,0.3-0.7,0.3
		c-0.3,0-0.5-0.2-0.5-0.4c-0.3-0.4-0.2-0.8,0.1-1.2l5-4.1c0.9-1.8,2.1-3.9,3.6-6.3c1.5-2.4,3.5-5.1,5.8-8.3c-3.1,0.5-6,1-8.8,1.5
		C414.7,501.4,412.2,502,409.9,502.7z M420.2,511.7c3-2.9,5.7-5.4,8-7.6c2.3-2.2,4.3-4.2,6-5.9l-4.9,0.8c-0.7,0.9-1.8,2.3-3.2,4.1
		C424.6,504.9,422.7,507.7,420.2,511.7z M442.3,486.5c-1.3,0.8-2.9,2-4.8,3.7c-2,1.7-4.2,3.8-6.6,6.5l5.2-0.8
		c1.4-1.7,2.8-3.5,4.1-5.3c1.3-1.8,2.3-3.3,2.9-4.5L442.3,486.5z"/>
	<path fill="#FFFFFF" stroke="#FFFFFF" stroke-miterlimit="10" d="M447.4,519.5c-1.3-0.8-2-1.8-2-3.2c0-1.3,0.4-2.7,1.1-4
		c0.8-1.4,1.7-2.6,2.9-3.8c1.2-1.2,2.3-2.1,3.3-2.6c0.2-0.1,0.5-0.2,0.9-0.3c0.4-0.1,0.7,0,0.7,0.3c0.3,0.4,0.2,0.8-0.1,1.2
		c-0.7,0.8-1.5,1.8-2.6,2.9c-1.1,1.1-2.1,2.1-3.1,3.1c-0.9,1.6-1.1,3-0.5,4.1c0.4,0.8,1.4,1.1,2.8,0.9c1.4-0.2,3-0.9,4.6-2.1
		c-1.2-0.8-1.9-1.9-2-3.4c-0.1-1.5,0.2-2.9,0.8-4.4c0.6-1.5,1.4-2.8,2.5-4c1.1-1.2,2.2-1.8,3.3-1.9c0.3,0,0.5-0.1,0.7,0
		c0.2,0,0.5,0.1,0.8,0.4c0.7,0.7,1,1.6,1,2.8c-0.1,1.2-0.3,2.4-0.7,3.7c-0.4,1.3-1,2.4-1.6,3.5c-0.6,1.1-1.1,1.8-1.5,2
		c1,0,2.3-0.3,3.9-1c1.6-0.7,3.3-1.5,4.9-2.4c1.7-0.9,3.3-1.9,4.8-2.9c1.5-1,2.6-1.9,3.3-2.6c0.8-0.1,1.2,0,1.3,0.4
		c0.3,0.4,0.2,0.8-0.1,1.2c-0.9,0.8-2.1,1.8-3.7,2.9c-1.6,1.1-3.3,2.1-5.2,3.1c-1.9,1-3.8,1.8-5.7,2.5c-1.9,0.7-3.6,1-5,0.9
		c-2.2,2-4.2,3.2-6,3.3C449.6,520.2,448.2,520,447.4,519.5z M460,504.1c-0.7,0-1.4,0.5-2.1,1.5c-0.7,1-1.3,2-1.8,3.2
		c-0.5,1.2-0.7,2.3-0.7,3.5c0,1.1,0.4,1.9,1.3,2.2c0.7-0.8,1.3-1.8,1.9-2.9c0.6-1.1,1.1-2.3,1.5-3.4c0.4-1.1,0.6-2,0.6-2.8
		C460.6,504.5,460.4,504.1,460,504.1z"/>
	<path fill="#FFFFFF" stroke="#FFFFFF" stroke-miterlimit="10" d="M441.6,568.1c-0.2-1.4,0.5-3.3,2.1-5.6c1.6-2.3,3.7-4.8,6.2-7.6
		c2.5-2.8,5.5-5.8,9-9.1c3.5-3.3,7.1-6.7,11-10.2l3.4-2.9l0.2-0.6c2.8-4.6,5.3-9.2,7.4-13.7c2.1-4.5,4.1-8.7,5.8-12.5
		c-4,5.6-7.4,9.2-10.2,10.8c-2.8,1.6-4.7,1.6-5.9-0.2c-1-1.1-1.1-2.5-0.5-4c0.6-1.5,1.7-3.1,3.2-4.7c1.5-1.6,3.2-3.1,5.2-4.6
		c2-1.5,3.9-2.7,5.7-3.8c0.8-0.1,1.3,0,1.5,0.3c0.1,0.7-0.1,1.2-0.6,1.6c-2.4,1.3-4.5,2.7-6.4,4.2c-1.9,1.5-3.5,2.9-4.6,4.3
		c-1.2,1.4-1.9,2.6-2.3,3.7c-0.4,1.1-0.2,1.9,0.6,2.3c0.7,0.5,1.6,0.3,2.9-0.5c1.2-0.8,2.6-2,4.1-3.5c1.5-1.5,3-3.1,4.4-4.9
		c1.4-1.8,2.7-3.5,3.8-5.1c0.2-0.5,0.6-0.6,1.3-0.4c0.6,0.3,0.9,0.7,0.6,1.2c-1,2.5-2.3,5.9-3.9,10.1c-1.6,4.2-4.3,9.5-7.9,15.9
		l3.9-3.6c2.9-2.6,5.9-5,8.7-7.4c2.9-2.4,5.6-4.7,8.2-6.9c2.6-2.2,5-4.2,7.1-6.1c2.1-1.9,3.9-3.6,5.3-5.1c0.5-0.7,1-0.7,1.5,0.1
		c0.3,0,0.4,0.1,0.4,0.4c-0.1,0.3-0.2,0.6-0.5,0.8c-1.5,1.4-3.2,3.1-5.3,5c-2.1,1.9-4.5,4-7.1,6.3c-2.6,2.3-5.3,4.6-8.2,7.1
		c-2.9,2.5-5.8,5.1-8.7,7.7l-8.1,6.9l-3.8,5.7l-3.8,6c-2.8,4-5.5,7.7-8.1,11.1c-2.6,3.4-5.1,6.2-7.4,8.3c-1.2,1.1-2.3,2-3.2,2.9
		c-0.9,0.8-1.8,1.5-2.6,1.9c-0.8,0.3-1.7,0.4-2.5,0.3c-0.8-0.1-1.4-0.7-1.9-1.7L441.6,568.1z M445.1,567.9c1.4-0.5,3.2-1.9,5.3-4.1
		c2.2-2.3,4.6-5.1,7.2-8.4c2.6-3.2,5.3-6.8,8.1-10.7c0.6-1,1.3-2,2-3.1c0.7-1,1.4-2,2.1-2.9l0-0.3l-4.1,3.9c-2.9,2.5-5.5,5-7.9,7.3
		c-2.4,2.3-4.6,4.5-6.5,6.6c-2.4,2.7-4.2,4.9-5.4,6.7c-1.2,1.8-1.9,3.2-2.3,4.4l0.1,0.6c0,0.2,0.1,0.4,0.2,0.5
		C444,568.4,444.4,568.3,445.1,567.9z"/>
	<path fill="#FFFFFF" stroke="#FFFFFF" stroke-miterlimit="10" d="M518.7,509.4c-1-1-1.1-2.4-0.5-4.1c0.6-1.7,1.5-3.4,2.6-5.1l0-0.3
		c-0.7-0.8-1.2-1.4-1.4-2c-0.2-0.6-0.6-1.2-1-2.1c-2.3,2.2-4.2,3.8-5.6,5.1c-1.4,1.2-2.5,2.2-3.2,2.9c-0.8,0.1-1.2,0.1-1.2-0.1
		c-0.2-0.3-0.3-0.5-0.3-0.8c0.1-0.3,0.2-0.5,0.3-0.7c0.4-0.5,0.9-0.9,1.4-1.3c0.5-0.4,1.2-1,1.9-1.6c0.7-0.7,1.6-1.4,2.5-2.3
		c0.9-0.9,2.1-2,3.5-3.3l0.1-0.9c0-1.6,0.5-3.2,1.5-4.8c0.9-1.6,2-3,3.3-4.2c1.3-1.2,2.6-2.3,4-3.1c1.4-0.8,2.5-1.3,3.4-1.3
		c0.7,0,1,0.5,1,1.4c0,0.9-0.6,2.1-1.7,3.3c-1.3,1.4-2.3,2.5-3,3.4c-0.8,0.9-1.9,2.1-3.4,3.6l-3,3.2c0.3,1.5,1.3,3.2,3.2,5.1
		c0.5,0.7,0.6,1.1,0.2,1.2c-0.7,0.9-1.5,2-2.3,3.3c-0.8,1.3-1.1,2.6-1,3.7c0.2,0.7,0.8,0.9,1.8,0.7c1-0.2,2.3-0.6,3.7-1.3
		c1.5-0.7,3.1-1.5,4.9-2.5c1.8-1,3.5-2,5.2-3.1c1.7-1.1,3.3-2.2,4.8-3.1c1.5-1,2.6-1.8,3.5-2.6c0.4-0.4,0.7-0.5,0.9-0.4
		c0.2,0.1,0.4,0.3,0.6,0.4c0.2,0.2,0.3,0.4,0.3,0.7c-0.1,0.3-0.2,0.5-0.4,0.5c-1.1,1-2.9,2.4-5.4,4.1c-2.5,1.8-5.1,3.5-7.9,5.1
		c-2.8,1.6-5.4,2.8-7.9,3.6C521.5,510.3,519.7,510.3,518.7,509.4z M529.1,481.3c-1.9,0.7-3.7,2-5.6,4c-1.9,2-3.1,3.9-3.6,5.8
		c0.8-1,1.6-1.9,2.4-2.7c0.8-0.8,1.5-1.5,2.2-2.3c0.7-0.8,1.4-1.5,2.2-2.3C527.3,483.1,528.2,482.2,529.1,481.3z"/>
	<path fill="#FFFFFF" stroke="#FFFFFF" stroke-miterlimit="10" d="M540.5,506.4c-1.3-0.5-1.9-1.5-1.8-2.9c0.1-1.4,0.6-2.9,1.5-4.4
		c0.9-1.5,2.2-2.9,3.8-4.2c1.6-1.3,3.2-2.1,5-2.4c1.2-0.2,2.2-0.1,3.2,0.2c1,0.3,1.7,0.8,2.1,1.3c0.2,0.3,0.2,0.5-0.1,0.8
		c-0.3,0.3-0.6,0.4-0.9,0.2c-0.5-0.2-1-0.4-1.5-0.7c-0.5-0.3-1.3-0.3-2.5-0.1c-1.2,0.2-2.3,0.8-3.6,1.8c-1.2,1-2.3,2.1-3.1,3.2
		c-0.8,1.2-1.4,2.3-1.7,3.2c-0.3,1-0.1,1.6,0.5,1.9c0.9,0.1,2-0.4,3.4-1.2c1.3-0.9,2.7-1.9,4.2-3.1c1.4-1.2,2.8-2.4,4.1-3.7
		c1.3-1.3,2.4-2.4,3.4-3.4c0.8-0.9,1.5-1.1,1.9-0.6c0.4,0.5,0.4,1,0,1.5c-1.1,1.1-1.8,2.3-2,3.7s0,2.1,0.7,2.3
		c0.7,0.2,1.8-0.2,3.2-1c1.4-0.9,2.9-1.9,4.4-3c1.5-1.1,2.9-2.2,4.2-3.4c1.3-1.1,2.1-1.8,2.5-2.2c0.5-0.4,1-0.3,1.4,0.2
		c0.4,0.5,0.4,1,0,1.3c-0.6,0.5-1.6,1.3-2.9,2.5c-1.3,1.2-2.7,2.3-4.3,3.4c-1.5,1.1-3.1,2.1-4.7,3c-1.6,0.9-2.9,1.2-4,1.1
		c-1.1-0.1-1.9-0.6-2.3-1.6c-0.4-0.9-0.4-1.9-0.1-2.8c-0.9,0.9-2,2-3.3,3.1c-1.3,1.2-2.7,2.2-4.1,3.1c-1.4,0.9-2.7,1.7-3.9,2.2
		C542,506.6,541.1,506.7,540.5,506.4z"/>
	<path fill="#FFFFFF" stroke="#FFFFFF" stroke-miterlimit="10" d="M550.9,535.9c-0.2-1.4,0-3.1,0.7-5.4c0.7-2.2,1.6-4.7,2.9-7.4
		c1.2-2.7,2.7-5.6,4.4-8.5c1.7-2.9,3.5-5.8,5.3-8.7c1.1-1.6,2.3-3.3,3.6-5.1c1.3-1.8,2.7-3.6,4.2-5.3l0.2-0.3l0.4-1.2
		c0-0.3,0-0.6,0-0.8c0.1-0.3,0.1-0.5,0-0.7l-0.1-0.6l-0.7,1c-1.3,1.1-2.2,1.9-2.6,2.5c-0.8,0.1-1.3,0-1.5-0.3
		c-0.3-0.4-0.1-0.9,0.4-1.3c0.5-0.4,1.3-1.1,2.4-2.1c1.1-1,1.7-1.9,1.9-2.7c0.2-0.6,0.6-1,1.1-1c0.5,0,0.8,0.2,0.9,0.7
		c0.1,0.6,0.2,1.2,0.3,1.7c0.1,0.6,0.1,1.2,0,1.9l0.3-0.2c2-2.1,3.9-3.8,5.6-5.1c1.7-1.3,3.1-1.7,4.4-1.3c1.5,0.6,2.3,1.7,2.3,3
		c0.1,1.4-0.3,3-1.1,4.8l-0.9,1.9l1.4-0.5c1.9-1.2,4-2.6,6.3-4.1c2.3-1.6,4.2-3,5.7-4.3c0.1-0.3,0.4-0.5,0.7-0.5
		c0.3,0,0.6,0.1,0.8,0.2c0.1,0.8,0.1,1.3-0.1,1.5c-2,2-4.5,3.9-7.7,5.8c-3.2,1.9-6,3.6-8.7,5.1l-0.3,0l-0.5,0.7
		c-1.7,2.5-3.7,4.8-6,6.7c-2.3,1.9-4.5,2.7-6.5,2.5l-0.8,2.2c-0.6,1.5-1.3,3-1.9,4.5c-0.6,1.5-1.2,3-1.7,4.4
		c-1.3,3.1-2.6,5.9-4.1,8.4c-1.4,2.5-2.7,4.6-3.9,6.3c-0.6,0.9-1.3,1.6-1.9,2.2c-0.6,0.5-1.3,1-2,1.4c-1.6,0.6-2.7,0-3.2-1.6
		L550.9,535.9z M556.3,532.9c1.1-1.6,2.4-3.6,3.8-6c1.4-2.4,2.7-5.2,4-8.3l3.9-8.9l0.5-2.2l-0.4-0.5l-0.1-0.9c0.2-0.6,0.7-1.3,1.5-2
		l0.2-0.3l1-2.8l0.4-1.3l-2.5,3.1c-0.5,0.7-1,1.3-1.5,2c-0.5,0.7-1,1.4-1.4,2.3c-1.8,2.7-3.5,5.4-5.1,8.1c-1.5,2.7-2.9,5.3-4.1,7.7
		c-1.2,2.4-2.1,4.7-2.8,6.8c-0.7,2.1-1,3.8-1,5.1l-0.2,0.6l0.4,0.5l0.6-0.1C554.1,535.7,555,534.7,556.3,532.9z M579.9,500.6l-2,0.6
		c-1.1,0.7-2.1,1.2-3.1,1.7c-1,0.5-1.9,0.9-2.7,1.3l-0.8,0.7l-0.1,0.9l-0.2,0.6l-0.6,0.1c0.9,0.3,2.1,0.1,3.5-0.8
		c1.4-0.9,2.8-2.1,4.4-3.7L579.9,500.6z M582,497l0.8-0.7c1.4-2.5,2.2-4.5,2.4-6c0.2-1.5-0.2-2.3-1.1-2.5c-0.7-0.8-3,0.8-7,4.7
		c-0.4,0.6-0.8,1.1-1.3,1.5c-0.5,0.4-1,1-1.4,1.6l-0.2,0.3l-0.6,1.6c-0.1,0.6-0.2,1.2-0.4,1.9c-0.1,0.7-0.3,1.4-0.5,2.2l1.1-0.3
		c0.7-0.4,1.5-0.8,2.4-1.3c0.9-0.4,1.7-0.9,2.5-1.3L582,497z"/>
	<path fill="#FFFFFF" stroke="#FFFFFF" stroke-miterlimit="10" d="M612.4,476.4c-0.8,0.7-1.5,1.4-2.3,2.2c-1.3,1.1-2.9,2.7-4.9,4.6
		l-2.9,7.9c0.7-0.8,1.7-1.8,3.2-3c1.5-1.2,3.1-2.4,4.7-3.7c1.7-1.2,3.3-2.3,4.9-3.2c1.6-0.9,2.9-1.4,4-1.5c1.6-0.3,2.7,0.4,3.3,1.8
		c0.2,0.9,0,2-0.9,3.4c-0.8,1.4-1.5,2.7-2.1,3.8c-0.6,1.1-0.7,1.9-0.5,2.2c0.2,0.4,1.4-0.1,3.5-1.5c0.9-0.5,2-1.2,3.2-2.1
		c1.2-0.8,2.6-1.7,3.9-2.6c1.4-0.9,2.7-1.8,4.1-2.7c1.3-0.9,2.5-1.8,3.4-2.6c0.5-0.4,1-0.3,1.4,0.1c0.4,0.5,0.4,0.9,0,1.1
		c-0.5,0.5-1.4,1.2-2.5,2.2c-1.2,1-2.5,2-3.9,3.1c-1.5,1.1-3,2.1-4.7,3.2c-1.7,1.1-3.2,2-4.6,2.7c-1.4,0.7-2.7,1.2-3.8,1.4
		c-1.1,0.2-1.9,0-2.3-0.7c-0.4-0.5-0.4-1.3-0.1-2.2c0.3-0.9,0.7-1.9,1.3-2.9c0.6-1,1.1-2,1.6-2.9c0.5-1,0.8-1.8,0.9-2.4
		c-0.2-0.7-1-0.7-2.5,0c-1.5,0.6-3.2,1.6-5.2,3c-2,1.4-4.1,2.9-6.2,4.7c-2.1,1.8-3.9,3.5-5.3,5.2c-0.2,0.5-0.6,0.7-1,0.5
		c-0.5-0.2-0.7-0.6-0.5-1.1c0.1-1.2,0.3-2.5,0.7-4c0.4-1.4,0.9-2.9,1.5-4.4l-3.1,2.6c-0.6,0.5-1.1,0.5-1.5-0.1
		c-0.2-0.2-0.3-0.4-0.2-0.7c0.1-0.3,0.3-0.6,0.5-0.8c1-0.7,1.9-1.5,2.8-2.4c0.9-0.8,1.9-1.7,2.9-2.7c1.2-2.9,2.7-5.7,4.3-8.6
		c1.7-2.8,3.5-5.6,5.4-8.1c1.5-1.9,2.9-3.6,4.4-5c1.4-1.4,2.8-2.7,4-3.8c1.2-1,2.4-1.8,3.6-2.4c1.2-0.6,2.2-0.7,3.1-0.2
		c1.6,0.8,1.3,3.1-0.9,6.9C625,464.6,620,469.8,612.4,476.4z M627.1,455.3c-0.2-0.2-0.7-0.1-1.4,0.3c-0.7,0.4-1.8,1.2-3.2,2.5
		c-3.8,3.3-7.1,6.9-9.8,10.7c-2.7,3.8-4.6,7.2-5.9,9.9l3.4-2.9c1.6-1.5,3.5-3.4,5.7-5.5c2.2-2.1,4.2-4.2,6-6.2
		c1.8-2.1,3.3-3.9,4.4-5.5C627.4,457,627.7,455.9,627.1,455.3z"/>
	<path fill="#FFFFFF" stroke="#FFFFFF" stroke-miterlimit="10" d="M624.3,516.8c-0.5-1.5-0.5-3.1,0.3-4.8c0.7-1.7,1.9-3.3,3.6-4.9
		c1.7-1.6,3.7-3,6-4.2c2.3-1.3,4.9-2.2,7.6-2.9l1.2-0.2c1.3-3.9,2.2-6.9,2.9-9.1c0.7-2.2,1.2-3.8,1.5-5c0.3-1.1,0.5-1.9,0.7-2.3
		c0.1-0.4,0.2-0.7,0.3-1l-1.1,1.2c-1.3,1.4-2.6,2.4-3.9,3.2c-1.4,0.7-2.6,0.8-3.8,0.2l0-0.3c-1-0.7-1.5-2-1.5-3.9l0.4-1.3l-2.9,2.5
		c-0.8,0.4-1.4,0.4-1.8,0c-0.3-0.4-0.1-0.9,0.4-1.3c1-0.7,2-1.4,3-2.3c1-0.9,1.7-1.7,2.2-2.4l0.2-0.3c0.6-0.9,1.3-1.2,1.9-0.9
		c0.6,0.3,0.6,0.9,0,1.8l-0.5,0.7c-1.2,3.1-1.4,4.9-0.6,5.4l0,0.3l0.3,0.2c1.1,0.1,2.5-0.5,4.2-1.9c1.7-1.4,3.1-3.1,4.1-5l0-0.3
		c-0.2,0.2-0.2,0.2-0.1-0.1c0.1-0.3,0.4-0.4,0.9-0.3l0.3,0c0.2,0.1,0.3,0.1,0.3,0.2c0,0.1,0.1,0.2,0.2,0.3c0,0.1,0.1,0.2,0.2,0.3
		l0.1,0.6c-0.5,3.4-1.3,6.8-2.3,10.4c-1,3.6-2.1,6.9-3.3,10.1l2.9-0.5c1.5,0.1,3,0.2,4.7,0.4c1.6,0.2,3.2,0.5,4.8,1.1
		c0.6,0.2,0.8,0.7,0.5,1.4c-0.3,0.4-0.7,0.6-1.1,0.5c-2.1-0.7-4.1-1.1-6-1.2c-1.9,0-3.8,0-5.8,0.1l-0.9,0.1
		c-2.2,4.8-4.8,8.7-7.7,11.7c-3,3-5.9,4.7-8.8,5.2c-0.8,0.1-1.5,0.1-2.2-0.1C624.9,518.1,624.5,517.6,624.3,516.8z M639.8,502.8
		c-1.1,0.2-2,0.4-2.8,0.8c-0.8,0.4-1.7,0.8-2.5,1.2c-3.2,1.7-5.5,3.6-7.1,5.8c-1.5,2.2-2,4.1-1.5,5.6c0,0.1,0.1,0.2,0.3,0.2
		c0.2,0.2,0.6,0.2,1.2,0.1c2.8-0.5,5.4-2,7.7-4.7c2.3-2.7,4.6-5.9,6.9-9.9L639.8,502.8z"/>
</g>
<circle fill="none" stroke="#FEFFFF" stroke-width="9" stroke-miterlimit="10" cx="441" cy="444" r="420"/>
</svg>
